<?xml version="1.0" encoding="UTF-8"?> <svg xmlns="http://www.w3.org/2000/svg" id="Layer_1" data-name="Layer 1" viewBox="0 0 500.96 122.26"><path d="M204.31,33a9.13,9.13,0,0,1-7,8.84,10.21,10.21,0,0,1,8.26,10.37c0,7-6.33,11.48-16.17,11.48h-21v-41h20.15C198.16,22.64,204.31,26.68,204.31,33Zm-12.47,2.17c0-2.11-1.53-3.4-3.93-3.4h-7.38v7h7.38C190.31,38.75,191.84,37.34,191.84,35.17ZM193,50.69c0-2.22-2-3.63-5.1-3.57h-7.38v7.43h7.38C191,54.61,193,53.09,193,50.69Z" style="fill:#fff"></path><path d="M222.76,22.64V53.5H240V63.69h-29.4v-41Z" style="fill:#fff"></path><path d="M263.06,54c4,0,6.91-2.87,6.91-7.67V22.64h12.17V46.36c0,10.89-7.43,17.86-19.14,17.86s-19.45-7-19.45-17.86V22.64h12.18V46.36C255.73,51.1,259,54,263.06,54Z" style="fill:#fff"></path><path d="M322,22.64V32H300.6v6.44H320v9.37H300.6v6.5h22v9.37H288.42v-41Z" style="fill:#fff"></path><path d="M344.29,31.66c-2.05,0-3.4.7-3.4,2.22,0,6,21.44,2.46,21.44,17.28,0,8.72-7.73,12.88-16.93,12.88a33.46,33.46,0,0,1-19.73-6.5l4.57-9.25c4.21,3.57,11.07,6.26,15.28,6.26,2.58,0,4.22-.87,4.22-2.75,0-6.2-21.43-2.28-21.43-16.75,0-7.91,6.72-12.94,17-12.94a32.93,32.93,0,0,1,17.15,4.75l-4.5,9.36C353.72,33.83,347.74,31.66,344.29,31.66Z" style="fill:#fff"></path><path d="M379,22.64V39h14.58V22.64h12.18V63.69H393.55V48.4H379V63.69H366.79v-41Z" style="fill:#fff"></path><path d="M424.82,22.64V63.69H412.64v-41Z" style="fill:#fff"></path><path d="M463.6,22.64V32H443.92V40.2h18.27v9.38H443.92V63.69H431.74v-41Z" style="fill:#fff"></path><path d="M501,22.64v9.72H489V63.69H476.78V32.36H464.89V22.64Z" style="fill:#fff"></path><path d="M180.15,80.59v2.16h-7.76v3.86h7v2.13h-7v3.93h8v2.15H170V80.59Z" style="fill:#fff"></path><path d="M193.81,80.59l7.62,10.22V80.59h2.35V94.82h-2.35l-7.58-10.2v10.2h-2.4V80.59Z" style="fill:#fff"></path><path d="M225.83,80.59v2.16h-7.76v3.86h7v2.13h-7v3.93h8v2.15h-10.4V80.59Z" style="fill:#fff"></path><path d="M246.15,94.82l-2.6-4.31c-.2,0-.43,0-.65,0h-3.37v4.29h-2.4V80.59h5.77c3.64,0,5.73,1.77,5.73,4.86a4.55,4.55,0,0,1-2.95,4.61l3.19,4.76Zm-3.25-6.44c2.19,0,3.46-.94,3.46-2.87s-1.27-2.76-3.46-2.76h-3.37v5.63Z" style="fill:#fff"></path><path d="M269.68,87.83h2.1v5.24a9.65,9.65,0,0,1-5.53,1.85,7.2,7.2,0,1,1,.14-14.39,8.57,8.57,0,0,1,5.47,2l-1.37,1.76a6.21,6.21,0,0,0-4.1-1.62,5.05,5.05,0,1,0,0,10.1,6.6,6.6,0,0,0,3.27-1Z" style="fill:#fff"></path><path d="M289.13,90.09v4.73h-2.38V90.17l-5.3-9.58h2.41l4.07,6.94,4-6.94h2.44Z" style="fill:#fff"></path><path d="M323.08,82.75c-1.4,0-2.31.53-2.31,1.48,0,3.11,7.68,1.44,7.65,6.57,0,2.53-2.23,4.1-5.36,4.1a8.76,8.76,0,0,1-5.81-2.26l1-2.07a7.49,7.49,0,0,0,4.81,2.07c1.67,0,2.67-.62,2.67-1.72,0-3.17-7.68-1.41-7.68-6.47,0-2.43,2.09-4,5.17-4a9.19,9.19,0,0,1,5,1.47l-1,2.11A8.54,8.54,0,0,0,323.08,82.75Z" style="fill:#fff"></path><path d="M353.25,87.71a7.54,7.54,0,1,1-7.53-7.18A7.27,7.27,0,0,1,353.25,87.71Zm-12.63,0a5.09,5.09,0,0,0,10.18,0,5.09,5.09,0,0,0-10.18,0Z" style="fill:#fff"></path><path d="M366.35,80.59v12h6.15v2.18H364V80.59Z" style="fill:#fff"></path><path d="M388.86,92.77a3.5,3.5,0,0,0,3.76-3.84V80.59H395v8.34c0,3.71-2.33,6-6.17,6s-6.2-2.28-6.2-6V80.59H385v8.34A3.55,3.55,0,0,0,388.86,92.77Z" style="fill:#fff"></path><path d="M416.29,80.59v2.16h-4.51V94.82h-2.4V82.75H404.9V80.59Z" style="fill:#fff"></path><path d="M428.87,80.59V94.82h-2.4V80.59Z" style="fill:#fff"></path><path d="M454.64,87.71a7.55,7.55,0,1,1-7.55-7.18A7.29,7.29,0,0,1,454.64,87.71Zm-12.64,0a5.09,5.09,0,0,0,10.18,0,5.09,5.09,0,0,0-10.18,0Z" style="fill:#fff"></path><path d="M467.68,80.59l7.62,10.22V80.59h2.36V94.82H475.3l-7.58-10.2v10.2h-2.4V80.59Z" style="fill:#fff"></path><path d="M494,82.75c-1.41,0-2.32.53-2.32,1.48,0,3.11,7.68,1.44,7.66,6.57,0,2.53-2.24,4.1-5.37,4.1a8.78,8.78,0,0,1-5.81-2.26l1-2.07a7.49,7.49,0,0,0,4.82,2.07c1.66,0,2.66-.62,2.66-1.72,0-3.17-7.68-1.41-7.68-6.47,0-2.43,2.09-4,5.18-4a9.22,9.22,0,0,1,5,1.47l-1,2.11A8.54,8.54,0,0,0,494,82.75Z" style="fill:#fff"></path><polygon points="0 115.64 43.21 88.67 28.77 61.7 0 115.64" style="fill:#e6e6e6"></polygon><polygon points="125.44 115.57 96.76 61.8 82.37 88.69 125.44 115.57" style="fill:#ccc"></polygon><polygon points="62.74 77.42 62.77 77.41 62.74 77.38 62.74 77.42" style="fill:#fff"></polygon><polygon points="0.9 116.97 58.35 116.97 43.97 90.09 0.9 116.97" style="fill:#ccc"></polygon><polygon points="63.58 0 63.58 51.57 91.09 51.57 63.58 0" style="fill:#e6e6e6"></polygon><polygon points="67.24 116.97 124.65 116.97 81.61 90.11 67.24 116.97" style="fill:#e6e6e6"></polygon><polygon points="61.97 0 34.46 51.57 61.97 51.57 61.97 0" style="fill:#ccc"></polygon><polygon points="62.64 53.18 25.71 53.18 62.64 76.23 62.68 76.26 99.4 53.33 99.48 53.18 62.64 53.18" style="fill:#0757a4"></polygon><polygon points="25.71 53.18 44.24 87.76 62.64 122.26 62.64 76.28 62.64 76.23 25.71 53.18" style="fill:#283879"></polygon><polygon points="62.68 76.26 62.64 76.28 62.64 122.26 81.06 87.72 99.63 53.19 62.68 76.26" style="fill:#4c7fb8"></polygon><rect x="146.38" y="12.71" width="1" height="93.35" style="fill:#fff"></rect></svg> 